<svg id="レイヤー_1" data-name="レイヤー 1" xmlns="http://www.w3.org/2000/svg" viewBox="0 0 334.46 73.5"><defs><style>.cls-1{fill:#323333;}</style></defs><path class="cls-1" d="M150.52,406.11a2.52,2.52,0,0,1-1.88,2.37,13.5,13.5,0,0,0-6.3-1.8c-3.76,0-6.78,2.29-6.78,5.88,0,2.95,1.88,4.75,3.92,5.81,2.7,1.47,5.07,2.45,7.93,4.09,3.27,2,4.91,4.74,4.91,7.68,0,7.52-6.46,10.63-12.18,10.63-4.5,0-7.53-1.47-8.92-2.7a2,2,0,0,1-.81-1.47,2.82,2.82,0,0,1,1.22-2.29,15.34,15.34,0,0,0,8.83,3c5.07,0,7.61-2.7,7.61-6.22,0-2.53-1.48-4.41-4.75-6.05-2.29-1.22-4.25-2-6-3-3.51-1.88-5.8-4.58-5.8-8.75,0-6,5.31-10,11.28-10C145.7,403.33,149.13,404.23,150.52,406.11Z" transform="translate(-130.41 -384.19)"/><path class="cls-1" d="M158,456.47a119.81,119.81,0,0,0,11.53-18.4,22.77,22.77,0,0,1-1.8-3.76c-.9-2.53-7.44-20.52-11.61-29.51a7.47,7.47,0,0,1,3.35-1.47,1.17,1.17,0,0,1,1.23.81c2,4.58,8.83,24,11.12,29.52a214.49,214.49,0,0,0,10.87-30.33,5.18,5.18,0,0,1,2.94.57c.58.49.74,1.06.25,2.53a264.77,264.77,0,0,1-9.32,25.51c-5.48,12.51-14.15,25.75-15.37,25.75a5.1,5.1,0,0,1-3.19-1.06Z" transform="translate(-130.41 -384.19)"/><path class="cls-1" d="M218.21,418.37c0-7.77-3.27-11.28-8.83-11.28-5.15,0-9.32,3.76-11.36,6.62v24.36c0,1.72-.41,1.88-1.47,2.05s-2.13.16-3,.16c.17-1.63.25-6.38.25-15.29V410.85c0-3.44-.49-5-1.23-5.73V405a6.64,6.64,0,0,1,2.94-1.63c2.05,0,2.29,4.57,2.29,6.7,3.11-3.52,8-6.7,12.84-6.7,8.42,0,11.69,5.64,11.69,14.71v12.59a80.85,80.85,0,0,0,.33,9,24.21,24.21,0,0,1-3.84.65c-.58,0-.82-.33-.82-.9Z" transform="translate(-130.41 -384.19)"/><path class="cls-1" d="M249.44,406.11a2.5,2.5,0,0,1-1.88,2.37,13.5,13.5,0,0,0-6.29-1.8c-3.76,0-6.79,2.29-6.79,5.88,0,2.95,1.88,4.75,3.93,5.81,2.69,1.47,5.06,2.45,7.93,4.09,3.27,2,4.9,4.74,4.9,7.68,0,7.52-6.46,10.63-12.18,10.63-4.5,0-7.52-1.47-8.91-2.7a2,2,0,0,1-.82-1.47,2.8,2.8,0,0,1,1.23-2.29,15.32,15.32,0,0,0,8.83,3c5.07,0,7.6-2.7,7.6-6.22,0-2.53-1.47-4.41-4.74-6.05-2.29-1.22-4.25-2-6.05-3-3.52-1.88-5.81-4.58-5.81-8.75,0-6,5.32-10,11.29-10C244.62,403.33,248.05,404.23,249.44,406.11Z" transform="translate(-130.41 -384.19)"/><path class="cls-1" d="M286.07,435.54a4.66,4.66,0,0,1-1.64,3.27,17.3,17.3,0,0,1-8.33,2c-6.22,0-18.24-2.21-18.24-18.48,0-11,8.34-19,19.13-19,5.4,0,9.16,2,9.82,2.94,0,1.55-1.07,2.94-2.29,2.62a17.6,17.6,0,0,0-8.26-2c-8.26,0-13.74,6.63-13.74,15.13,0,12.43,9.16,15,14.72,15a22.78,22.78,0,0,0,8.67-1.8Z" transform="translate(-130.41 -384.19)"/><path class="cls-1" d="M298.82,409.46c3.27-3,7.77-6.13,12.84-6.13,10.38,0,11.85,8.74,11.85,15.53v11.36c0,6,0,8.34.17,9.41a11.38,11.38,0,0,1-3.76.65c-.58,0-.66-.33-.66-1.06,0-1,.08-12.76.08-19.87,0-9.81-4.41-12.26-9.15-12.26-5.48,0-9.81,3.92-11.37,5.8v25.35c0,1.39-.41,1.71-1.22,1.88a24.9,24.9,0,0,1-3.19.16c.16-1.63.24-6.38.24-15.29V394.33c0-4.82-.16-7.76-.32-9.4a12.74,12.74,0,0,1,3.67-.74c.5,0,.82.41.82,5.32Z" transform="translate(-130.41 -384.19)"/><path class="cls-1" d="M337.08,390a2.77,2.77,0,0,1-2.69,2.94,2.59,2.59,0,0,1-2.78-2.86,2.85,2.85,0,0,1,2.86-2.94A2.64,2.64,0,0,1,337.08,390Zm-.57,47.83c0,1.47-.32,1.88-1.06,2a18.55,18.55,0,0,1-3.35.41c.08-3.27.24-8,.24-12.75V413.79c0-5-.16-7.44-.32-9.32a12.87,12.87,0,0,1,3.67-.65c.5,0,.82.41.82,5Z" transform="translate(-130.41 -384.19)"/><path class="cls-1" d="M365.13,406.11a2.52,2.52,0,0,1-1.88,2.37,13.54,13.54,0,0,0-6.3-1.8c-3.76,0-6.78,2.29-6.78,5.88,0,2.95,1.88,4.75,3.92,5.81,2.7,1.47,5.07,2.45,7.93,4.09,3.27,2,4.91,4.74,4.91,7.68,0,7.52-6.46,10.63-12.19,10.63-4.49,0-7.52-1.47-8.91-2.7a2,2,0,0,1-.82-1.47,2.82,2.82,0,0,1,1.23-2.29,15.32,15.32,0,0,0,8.83,3c5.07,0,7.6-2.7,7.6-6.22,0-2.53-1.47-4.41-4.74-6.05-2.29-1.22-4.25-2-6.05-3-3.51-1.88-5.8-4.58-5.8-8.75,0-6,5.31-10,11.28-10C360.3,403.33,363.74,404.23,365.13,406.11Z" transform="translate(-130.41 -384.19)"/><path class="cls-1" d="M377.8,438.48c0,1.31-.57,1.56-1.31,1.64a23.62,23.62,0,0,1-3.11.16c.17-1.63.25-6.38.25-15.29V410.85c0-3.35-.49-5.23-1.23-5.73v-.24a7.61,7.61,0,0,1,3-1.55c1.8,0,2.2,3.92,2.2,6.7,3.28-3.43,7.77-6.7,12.6-6.7,5.15,0,8.17,2.37,10,6.78,3.35-3.6,7.77-6.78,12.92-6.78,7.76,0,11.36,5.39,11.36,14.47v12.91a80.09,80.09,0,0,0,.33,8.92,22.66,22.66,0,0,1-3.84.65c-.41,0-.66-.33-.66-1.06V418.53c0-8.17-3.19-11.36-8.5-11.36-5.07,0-8.42,3.35-10.71,5.8l.08,24.94c0,1.72-.16,2-1.39,2.21a25.11,25.11,0,0,1-3,.16c.16-1.63.24-6.38.24-15.29v-6.54c0-7.85-2.94-11.28-8.34-11.28-4.58,0-8.66,3.68-10.87,6.29Z" transform="translate(-130.41 -384.19)"/><path class="cls-1" d="M464.87,421.72c0,10.47-6.62,19-17.33,19-13.17,0-17.42-10.46-17.42-18.31,0-10.47,7.12-19.13,17.74-19.13C459.06,403.33,464.87,411.17,464.87,421.72Zm-30.09-.08c0,10.55,6.05,16,13.25,16,4.74,0,12.18-3.27,12.18-15.61,0-8.1-4-15.7-12.84-15.7C441.4,406.35,434.78,411.17,434.78,421.64Z" transform="translate(-130.41 -384.19)"/></svg>